<svg id="Layer_1" data-name="Layer 1" xmlns="http://www.w3.org/2000/svg" viewBox="0 0 104.7 104.7"><defs><style>.cls-1{fill:#231f20}</style></defs><title>Artboard 1 copy 3</title><path class="cls-1" d="M86.89 46.67h-6.08a3.62 3.62 0 0 1-2.16 1.83c-1.92.72-3.85-1.2-5.77-1.44-2.48 0-4.32 2.1-6.32-.38h-31.8s-2.11 1.77-2.11 6.09a9 9 0 0 0 2.11 5.88h52.13a15.45 15.45 0 0 0 1.7-6 15.57 15.57 0 0 0-1.7-5.98zM89.65 78l-68.14.29a7.16 7.16 0 0 1-1.82-4.74c0-3.43 1.82-4.74 1.82-4.74l68.14-.29a17.1 17.1 0 0 1 .9 4.74 17 17 0 0 1-.9 4.74zm-.07-11.06l-73.48.21a4.52 4.52 0 0 1-2-3.37 3.78 3.78 0 0 1 2-3.38l73.48-.21a8.73 8.73 0 0 1 1 3.38 8.66 8.66 0 0 1-1 3.37z"/><path class="cls-1" d="M70 35.6c-4.81-2.89-6.49 5.59-3.84 9.19 2.16 3.37 4.08 1 6.73 1 1.92.24 3.85 2.16 5.77 1.44 3.37-1 3.61-6.73 2.65-9.62a5.46 5.46 0 0 0-3.85-4.33c-3.61-.72-3.85 3.07-7.45 2.35"/><path class="cls-1" d="M74.09 31.95c-.07-.76-.16-1.52-.19-2.29a5.69 5.69 0 0 1 .1-1.07c.15-.89.48-.45-.49-.25l-2.17-.4c.08 1.33.27 3.58-.93 4.49-.66.5-.4 1.16.35 1.3a3.62 3.62 0 0 0 2.7-.73c1.86-1.4 1.85-4 1.71-6.09-.05-.81-1.78-.48-2.17-.4a3.42 3.42 0 0 0-2.9 2.81 14.9 14.9 0 0 0 .13 3.68c.11 1.21 4 .39 3.85-1z"/><path class="cls-1" d="M67.56 30.11h.18a3.32 3.32 0 0 1 .55.18 2.9 2.9 0 0 1 .83.47 5.44 5.44 0 0 1 .67.6c.39.42.72.85 1 1.15l.4.49a.5.5 0 0 1-.68.72l-.56-.4c-.32-.24-.74-.56-1.14-.81a3.73 3.73 0 0 0-.58-.3.9.9 0 0 0-.37-.1 1.68 1.68 0 0 0-.37 0h-.19a1 1 0 1 1 0-2.1 1.12 1.12 0 0 1 .26.1z"/></svg>