<svg id="Layer_1" data-name="Layer 1" xmlns="http://www.w3.org/2000/svg" viewBox="0 0 104.7 104.7"><defs><style>.cls-1{fill:#231f20}</style></defs><title>Artboard 1 copy 9</title><path class="cls-1" d="M32.19 63a13 13 0 0 1-4.3 3.94c-8.52 4.42-9.66 4.09-9.17 10.81 0 .19.06.34.09.51l-.3 7.51a1 1 0 0 0 .59.94 12 12 0 0 0 4.44.71 1 1 0 0 0 .91-.59c.28-.64.85-1.38 1.2-1.38.43.05.52 1 .52 1a1 1 0 0 0 .63.88 18.82 18.82 0 0 0 6.18 1 16.65 16.65 0 0 0 5.82-1 1 1 0 0 0 .64-1 1.31 1.31 0 0 1 1-1.29A1.86 1.86 0 0 1 41 85a3.17 3.17 0 0 1 1.82.74 1 1 0 0 0 1.06.17c.3-.13 7.31-3.27 10.86-7.83a1 1 0 0 0 .12-1.08s-.65-1.29-.08-2.06a2.25 2.25 0 0 1 .66.65 1 1 0 0 0 .67.43 1 1 0 0 0 .76-.21c.71-.57 7-5.69 6.59-9.7a1 1 0 0 0-.19-.5 2.45 2.45 0 0 1-.51-1.45.62.62 0 0 1 .3-.43.84.84 0 0 1 1.06-.06 3.05 3.05 0 0 0 1.3.34 2.4 2.4 0 0 0 .84-.16l.45-.16c4.51-1.6 9.69-3.84 9.69-7A3.44 3.44 0 0 0 76 55c0-.07-.08-.16-.09-.14a3.6 3.6 0 0 1 .91-1 .79.79 0 0 1 .34-.2 2 2 0 0 1 .52.35 2.62 2.62 0 0 0 1.64.74c1.08 0 2-.86 3-3l.17-.33c2.85-5.53 5.32-10.31 2.16-14-2.76-3.25-7.16-8.12-7.21-8.17a1 1 0 0 0-.37-.24 61.65 61.65 0 0 0-5.33-4.69 5.61 5.61 0 0 0-1.66-3.71c.25-1.35.19-3.42-2.18-4.16-2.66-.84-2.21 1.92-1.77 3.45a12 12 0 0 0-10.36 6.56c-3 5.32-5.73 9.46-12 10.29a8.52 8.52 0 0 0-2.55-.47c-.76 0-2.19 0-3.25 11.27l-.14 1.48A61.39 61.39 0 0 1 32.19 63zm35.29-40.85a2.32 2.32 0 0 1 1.12-.1c.79.06 1.16 1.56 1.28 2.57a25.41 25.41 0 0 1-21.19 17.54v-.1c3.08-1.28 16.44-7.49 18.79-19.91zm-9.9 5.3a10.07 10.07 0 0 1 7.94-5.52c-2.16 10.92-14.13 16.81-17.34 18.2a5.56 5.56 0 0 0-.8-1.14 7.58 7.58 0 0 0-.84-.76c5.46-1.59 8.29-5.84 11.03-10.78zM41.65 38.3a7.11 7.11 0 0 1 4.28 2 2.65 2.65 0 0 1 .8 1.88.79.79 0 0 1 0 .19 40.13 40.13 0 0 1-6 0 20.13 20.13 0 0 1 .92-4.07zm39.17 12.3l-.17.33a5.73 5.73 0 0 1-1.27 1.9 2.43 2.43 0 0 1-.43-.31 2.78 2.78 0 0 0-1.75-.78 2.48 2.48 0 0 0-1.62.68c-1.6 1.37-1.91 2.21-1.31 3.45a1.53 1.53 0 0 1 .21.75c0 .65-.82 2.45-8.38 5.13l-.49.18a.39.39 0 0 1-.15 0 1.55 1.55 0 0 1-.49-.17 3.15 3.15 0 0 0-1.33-.34A2.86 2.86 0 0 0 62 62a2.6 2.6 0 0 0-1.11 1.74 4.11 4.11 0 0 0 .69 2.66c0 2-2.9 5.21-5.15 7.16a2.51 2.51 0 0 0-1.63-.72 1.91 1.91 0 0 0-1.56.84 3.77 3.77 0 0 0-.35 3.54c-2.8 3.28-7.65 5.8-9.23 6.56A4.85 4.85 0 0 0 41 83a3.75 3.75 0 0 0-1.29.23 3.31 3.31 0 0 0-2.23 2.5 15 15 0 0 1-4.48.67 17.86 17.86 0 0 1-5-.71 2.63 2.63 0 0 0-2.14-2.19c-1.43-.18-2.46 1.13-2.94 1.94a11.6 11.6 0 0 1-2.45-.34l.15-3.84c3.16 1.93 9.7.38 16.25.26 8.85-.16 12.78-3.77 17.2-12.45a49 49 0 0 1 5.1-8.26 44.8 44.8 0 0 1 7.95-6.71 28.45 28.45 0 0 1 6.28-2.39c7.18-1.85 8.05-10.43 6.61-16.62 1.1 1.24 2.24 2.55 3.19 3.66 2.33 2.7.25 6.74-2.38 11.85z"/></svg>