<svg id="Layer_1" data-name="Layer 1" xmlns="http://www.w3.org/2000/svg" viewBox="0 0 104.7 104.7"><defs><style>.cls-1{fill:#231f20;}</style></defs><title>Artboard 1 copy 8</title><path class="cls-1" d="M68.6,76.3A59.37,59.37,0,0,0,81.16,71L82.8,70l-1.31-1.26c-2.42-2.33-4.83-4.67-7.29-7A27,27,0,0,0,36.76,22.94l-4.43-4.6-.82-.86-.7,1h0c-5.49,7.22-9.54,15.63-10.68,24.94a31.54,31.54,0,0,0,1.43,14,29.88,29.88,0,0,0,7.76,11.83,32.76,32.76,0,0,0,12,7.42,36.17,36.17,0,0,0,8.65,1.83v2.35a18.83,18.83,0,0,0-9.84,8.35H70.5a19.25,19.25,0,0,0-10-8.35V78.09A58.36,58.36,0,0,0,68.6,76.3ZM46.17,19a27.82,27.82,0,0,1,8.94-1.5,25.1,25.1,0,0,1,25.1,25.1,27.26,27.26,0,0,1-3,12.24c-.76.49-1.55,1-2.41,1.51C71.5,58.55,71,63,66.18,61.87c0-2.33,2.16-3.66,3-5.65a9.41,9.41,0,0,0,.5-4.82c-.5-2.16-1.66-1.66-2.83-3.49-1-1.5-1-4.66.66-5.82,1.83-1.16,5.15,1.33,6.65-.17,1-1.33,0-6.65-1.33-7.48-1.66-1-4.82.83-6.15-1.16,2-2,3.49-1.5.66-3.66-1.5-1.33-3.82-2.66-5-.16-3.82-4.49-4.65-1.66-7.48,1.66-1-.66-2.49-1.66-3.82-1.16-1.16.67-.67,2-1.33,2.5-3.49,2.49-1.16-1.83-1.33-3.33-.17-1-1.16-1.5-1.5-2.49-.17-1,.33-2.49.17-3.49C46.71,21.61,45.71,20.24,46.17,19Zm-5.48,8.24c.49-.1,2-.43,2.16.34a.55.55,0,0,1-.08.44.72.72,0,0,1,.25.2.78.78,0,0,1,.32.36,3.39,3.39,0,0,1,.22,1,3.14,3.14,0,0,1,.1,2.25c-.32.79-1.46,1.13-2.21,1.23-.36.05-1.55.15-1.63-.44s0-1.33-.11-2a6.6,6.6,0,0,1-1.66-.06c-.42-.08-.76-.23-.72-.7C37.46,28.33,39.36,27.55,40.69,27.28ZM32.27,66.14A27.13,27.13,0,0,1,25.55,56,29.07,29.07,0,0,1,24,43.75a47,47,0,0,1,2.8-12.43,64.21,64.21,0,0,1,5-10.65l3.56,3.69A27,27,0,0,0,72.73,63.15l0,.05c1.77,2,3.59,4.05,5.4,6.06-7.28,3.26-15.27,5.47-23.16,5.5a34.76,34.76,0,0,1-12.32-2A29.59,29.59,0,0,1,32.27,66.14Z"/></svg>