<svg id="Layer_1" data-name="Layer 1" xmlns="http://www.w3.org/2000/svg" viewBox="0 0 104.7 104.7">
        <defs>
        <style>
            .cls-1 {
                fill: #fff
            }
        </style>
    </defs>
    <polygon class="cls-1" points="87.19 69.77 90.9 69.6 89.38 29.77 16.82 33.04 16.85 33.88 87.19 33.88 87.19 69.77"
    />
    <path class="cls-1" d="M13.79,35.06V74.93H86.41V35.06ZM49.88,68.2A13.2,13.2,0,1,1,63.07,55,13.2,13.2,0,0,1,49.88,68.2Z"
    />
    <path class="cls-1" d="M50.91,65H49.29v-2.2c-4.35-.42-5.28-3.08-5.7-4.31l2.57-.59a3.28,3.28,0,0,0,3.13,2.71V55.85c-2.35-.59-5.09-1.25-5.09-4.53,0-4,4-4.55,5.09-4.65V45h1.61v1.71a5.21,5.21,0,0,1,4.68,3.67l-2.4.52a2.61,2.61,0,0,0-2.28-2v4.23l1.23.32c2.54.64,4,1.84,4,4.48a4.45,4.45,0,0,1-2,3.84,6.87,6.87,0,0,1-3.25,1ZM49.29,48.88c-1.49,0-2.44.78-2.44,2,0,1.59,1.59,1.86,2.44,2Zm1.61,11.69c1.74-.07,2.65-1.1,2.65-2.35,0-1.71-1.91-2.08-2.65-2.22Z"
    />
</svg>