<svg id="Layer_1" data-name="Layer 1" xmlns="http://www.w3.org/2000/svg" viewBox="0 0 104.7 104.7">
        <defs>
        <style>
            .cls-1 {
                fill: #fff
            }
        </style>
    </defs>
    <path class="cls-1" d="M74.79,59.61C71.06,73.88,64.59,87.08,53,87.08h-.27C41.5,86.87,34.92,74.43,31.06,61l1.74-1.38c3.62,13,9.77,25.3,19.91,25.48H53c10.4,0,16.49-12.91,20-26.51Zm2-22.39c.57-4.89.75-8.08.83-9.3-1.59-1.49-9.72-8.3-24.8-8.3-13.09,0-23,6.84-25,8.37.07,1.21.29,4.47.79,8.85l-1.9,1.31c-.69-5.83-.89-10-.92-10.59l0-.5.39-.32A45.35,45.35,0,0,1,52.7,17.62c17.88,0,26.31,8.84,26.66,9.22l.28.31,0,.42c0,.62-.14,4.86-.83,10.73l-2-1.08"
    />
    <path class="cls-1" d="M22,42.56S36.28,31.34,52.48,31.34s29,10.07,29,10.07l-3.7,18.12S69.61,54,53.41,54C34.76,54,28.9,61.55,28.9,61.55Z"
    />
    <path class="cls-1" d="M35,59.29s5.31-3.83,19.54-3.35l-.63,26.61S41.63,87.13,35,59.29Z" />
    <path class="cls-1" d="M54.82,21.94l-.3,8.37s8.65-.4,20.74,6.15l.69-8S66.27,21.34,54.82,21.94Z" />
    <polygon class="cls-1" points="22.95 48.69 17.18 52.35 23.65 60.52 22.95 67.95 29.28 65.38 22.95 48.69" />
    <polygon class="cls-1" points="78 63.24 83 64.68 82.24 57.06 87.52 48.79 81.47 47.12 78 63.24" />
    <path class="cls-1" d="M74.79,59.61C71.06,73.88,64.59,87.08,53,87.08h-.27C41.5,86.87,34.92,74.43,31.06,61l1.74-1.38c3.62,13,9.77,25.3,19.91,25.48H53c10.4,0,16.49-12.91,20-26.51Zm2-22.39c.57-4.89.75-8.08.83-9.3-1.59-1.49-9.72-8.3-24.8-8.3-13.09,0-23,6.84-25,8.37.07,1.21.29,4.47.79,8.85l-1.9,1.31c-.69-5.83-.89-10-.92-10.59l0-.5.39-.32A45.35,45.35,0,0,1,52.7,17.62c17.88,0,26.31,8.84,26.66,9.22l.28.31,0,.42c0,.62-.14,4.86-.83,10.73l-2-1.08"
    />
    <path class="cls-1" d="M22,42.56S36.28,31.34,52.48,31.34s29,10.07,29,10.07l-3.7,18.12S69.61,54,53.41,54C34.76,54,28.9,61.55,28.9,61.55Z"
    />
    <path class="cls-1" d="M35,59.29s5.31-3.83,19.54-3.35l-.63,26.61S41.63,87.13,35,59.29Z" />
    <path class="cls-1" d="M54.82,21.94l-.3,8.37s8.65-.4,20.74,6.15l.69-8S66.27,21.34,54.82,21.94Z" />
    <polygon class="cls-1" points="22.95 48.69 17.18 52.35 23.65 60.52 22.95 67.95 29.28 65.38 22.95 48.69" />
    <polygon class="cls-1" points="78 63.24 83 64.68 82.24 57.06 87.52 48.79 81.47 47.12 78 63.24" />
</svg>