<?xml version="1.0" encoding="UTF-8"?>
<svg width="730px" height="977px" viewBox="0 0 730 977" version="1.1" xmlns="http://www.w3.org/2000/svg" xmlns:xlink="http://www.w3.org/1999/xlink">
    <!-- Generator: Sketch 49.2 (51160) - http://www.bohemiancoding.com/sketch -->
    <title>Hand-SVG</title>
    <desc>Created with Sketch.</desc>
    <defs></defs>
    <g id="images" stroke="none" stroke-width="1" fill="none" fill-rule="evenodd">
        <g id="Hand-SVG" transform="translate(339.666463, 462.737437) rotate(-15.000000) translate(-339.666463, -462.737437) translate(34.666463, -45.762563)" fill="#FFFFFF" fill-rule="nonzero">
            <polygon id="Shape" points="89.7506476 0 193.127328 0 193.127328 447.306429 129.724239 447.306429 86.1645 497.674267"></polygon>
            <polygon id="Shape" points="213.925655 261.46469 318.881831 278.42899 322.374078 447.164043 213.925655 447.164043"></polygon>
            <polygon id="Shape" points="343.172405 274.835043 346.739788 585.324362 451.620828 569.281857 451.620828 292.691879"></polygon>
            <polygon id="Shape" points="470.933561 300.090155 555.907317 314.786063 558.583655 559.511096 473.609899 585.324362"></polygon>
            <path d="M590.254258,950.819772 C570.269951,1011.91534 525.388726,1016.14686 525.388726,1016.14686 L401.810347,1016.14686 C427.66117,948.442513 424.036331,862.861172 424.036331,862.861172 C424.036331,862.861172 410.157015,706.485045 240.552726,639.398783 C219.662209,631.03083 166.386621,623.043238 166.386621,623.043238 L189.518814,557.098061 L203.827388,557.098061 L203.827388,601.790538 L332.604548,587.526982 L332.604548,601.362632 L463.86186,583.200369 L464.291117,602.218445 L569.554522,572.645337 L573.99018,587.622072 C573.99018,587.622072 608.044584,675.247856 609.09388,828.39091 C608.585926,869.877783 602.244302,911.088689 590.254258,950.819772 Z" id="Shape"></path>
            <polygon id="Shape" points="213.925655 556.295585 294.254977 556.295585 320.888483 505.102242 320.888483 575.643871 213.925655 589.781147"></polygon>
            <path d="M404.021106,865.296683 C404.021106,865.296683 404.831437,952.399704 378.996203,1016.14522 L229.466447,1016.14522 C229.466447,1016.14522 136.516806,1017.76265 72.6437195,919.337662 C29.9822175,836.563627 2.66932302,646.563919 2.66932302,646.563919 L0,628.81983 L130.510829,457.563207 L334.618708,457.563207 L288.477553,543.191518 L181.132634,544.666228 L152.532744,628.391688 C277.13293,640.189367 342.197678,733.048513 342.197678,733.048513 C400.827452,801.979304 404.688437,868.388816 404.021106,865.296683 Z" id="Shape"></path>
        </g>
    </g>
</svg>