<svg width="24" height="14" viewBox="0 0 24 14" version="1.1" xmlns="http://www.w3.org/2000/svg" xmlns:xlink="http://www.w3.org/1999/xlink">
<title>Vector</title>
<desc>Created using Figma</desc>
<g id="Canvas" transform="translate(-10990 -8190)">
<g id="Vector">
<use xlink:href="#path0_fill" transform="matrix(1.11022e-16 -1 1 1.11022e-16 10990.5 8203.86)" fill="#FFFFFF"/>
<use xlink:href="#path1_fill" transform="matrix(1.11022e-16 -1 1 1.11022e-16 10990.5 8203.86)" fill="#FFFFFF"/>
<use xlink:href="#path2_fill" transform="matrix(1.11022e-16 -1 1 1.11022e-16 10990.5 8203.86)" fill="#FFFFFF"/>
<use xlink:href="#path3_fill" transform="matrix(1.11022e-16 -1 1 1.11022e-16 10990.5 8203.86)" fill="#FFFFFF"/>
<use xlink:href="#path4_fill" transform="matrix(1.11022e-16 -1 1 1.11022e-16 10990.5 8203.86)" fill="#FFFFFF"/>
<use xlink:href="#path5_fill" transform="matrix(1.11022e-16 -1 1 1.11022e-16 10990.5 8203.86)" fill="#FFFFFF"/>
<use xlink:href="#path6_fill" transform="matrix(1.11022e-16 -1 1 1.11022e-16 10990.5 8203.86)" fill="#FFFFFF"/>
</g>
</g>
<defs>
<path id="path0_fill" d="M 1.93268 0L 4.25915 0L 4.25915 10.1011L 2.83228 10.1011L 1.85197 11.2385L 1.93268 0Z"/>
<path id="path1_fill" d="M 4.75196 5.90002L 7.14515 6.28203L 7.22478 10.0816L 4.75196 10.0816L 4.75196 5.90002Z"/>
<path id="path2_fill" d="M 7.72732 6.30155L 7.80802 13.2993L 10.1808 12.9377L 10.1808 6.704L 7.72732 6.30155Z"/>
<path id="path3_fill" d="M 10.6103 6.81143L 12.5235 7.14286L 12.5838 12.662L 10.6705 13.2442L 10.6103 6.81143Z"/>
<path id="path4_fill" d="M 13.3002 21.4676C 12.8493 22.8504 11.8368 22.9462 11.8368 22.9462L 9.04865 22.9462C 9.63188 21.4138 9.5501 19.4769 9.5501 19.4769C 9.5501 19.4769 9.23696 15.9377 5.41044 14.4194C 4.93912 14.23 3.73714 14.0492 3.73714 14.0492L 4.25904 12.5567L 4.58186 12.5567L 4.58186 13.5682L 7.48726 13.2454L 7.48726 13.5585L 10.4486 13.1474L 10.4583 13.5779L 12.8332 12.9085L 12.9333 13.2475C 12.9333 13.2475 13.7016 15.2307 13.7253 18.6968C 13.7138 19.6357 13.5707 20.5684 13.3002 21.4676Z"/>
<path id="path5_fill" d="M 4.80894 12.5523L 6.6232 12.5523L 7.22472 11.4106L 7.22472 12.9838L 4.80894 13.2991L 4.80894 12.5523Z"/>
<path id="path6_fill" d="M 9.12081 19.5341C 9.12081 19.5341 9.1391 21.5043 8.55587 22.9463L 5.18022 22.9463C 5.18022 22.9463 3.08188 22.9829 1.63994 20.7565C 0.676851 18.8841 0.0602602 14.5863 0.0602602 14.5863L 0 14.1849L 2.94629 10.311L 7.55404 10.311L 6.5124 12.248L 4.08908 12.2813L 3.44344 14.1752C 6.2563 14.4421 7.72514 16.5426 7.72514 16.5426C 9.04871 18.1018 9.13587 19.604 9.12081 19.5341Z"/>
</defs>
</svg>
