<?xml version="1.0" encoding="UTF-8"?>
<svg  viewBox="0 0 58 105" version="1.1" xmlns="http://www.w3.org/2000/svg" xmlns:xlink="http://www.w3.org/1999/xlink">
    <path d="M18.176,34.928 L0.176,32.48 C1.04,10.304 13.136,0.512 29.696,0.512 C55.184,0.512 57.92,20.672 57.92,27.44 C57.92,41.408 50.144,48.32 43.664,53.936 C36.176,60.704 36.032,62.144 36.032,70.496 L19.184,70.496 C19.328,57.248 19.328,54.368 22.928,49.472 C24.08,47.888 30.56,41.552 31.712,40.256 C35.744,35.504 36.608,30.32 36.608,27.008 C36.608,18.8 30.56,17.648 28.4,17.648 C18.608,17.648 18.32,29.456 18.176,34.928 Z M18.176,77.552 L37.04,77.552 L37.04,98 L18.176,98 L18.176,77.552 Z" fill="#FFFFFF"></path>
</svg>