<svg id="Layer_1" data-name="Layer 1" xmlns="http://www.w3.org/2000/svg" viewBox="0 0 104.7 104.7"><defs><style>.cls-1{fill:#231f20;}</style></defs><title>Artboard 1 copy 4</title><polygon class="cls-1" points="80.06 39.06 75.92 39.06 52.28 26.25 32.05 41.46 38.38 45.55 48.46 38.69 52.95 39.06 74.37 62.18 80.06 61.06 80.06 39.06"/><polygon class="cls-1" points="24.35 38.46 26.43 38.46 41.45 29.94 44.31 29.94 30.15 41.37 38.69 47.21 48.69 40.98 52.34 41.54 73.23 64.44 69.19 72.36 67.44 70.8 61.41 77.06 59.12 74.98 53.88 78.45 50.89 76.33 44.73 78.45 27.29 60.46 24.35 60.63 24.35 38.46"/><path class="cls-1" d="M87.47,63.7H79.14V31.59h8.33Zm-7-1.85h5.7V33.44h-5.7Z"/><path class="cls-1" d="M25.56,67.71H17.23V35.6h8.33Zm-7-1.85h5.7V37.45h-5.7Z"/><polygon class="cls-1" points="80.06 39.06 75.92 39.06 52.28 26.25 32.05 41.46 38.38 45.55 48.46 38.69 52.95 39.06 74.37 62.18 80.06 61.06 80.06 39.06"/><polygon class="cls-1" points="24.35 38.46 26.43 38.46 41.45 29.94 44.31 29.94 30.15 41.37 38.69 47.21 48.69 40.98 52.34 41.54 73.23 64.44 69.19 72.36 67.44 70.8 61.41 77.06 59.12 74.98 53.88 78.45 50.89 76.33 44.73 78.45 27.29 60.46 24.35 60.63 24.35 38.46"/><path class="cls-1" d="M87.47,63.7H79.14V31.59h8.33Zm-7-1.85h5.7V33.44h-5.7Z"/><path class="cls-1" d="M25.56,67.71H17.23V35.6h8.33Zm-7-1.85h5.7V37.45h-5.7Z"/></svg>