<svg id="Layer_1" data-name="Layer 1" xmlns="http://www.w3.org/2000/svg" viewBox="0 0 104.7 104.7"><defs><style>.cls-1{fill:#231f20;}</style></defs><title>Artboard 1 copy 7</title><path class="cls-1" d="M32.42,39.84A11.78,11.78,0,0,1,44.12,29.42c.35,0,.71,0,1.06.06a18.67,18.67,0,0,1,5.19-4.9,17.92,17.92,0,0,0-4.17-1,17.67,17.67,0,0,0-14.07,4.57l-1.47-1.79,2.71-2.71a1.77,1.77,0,0,0-2.5-2.5l-2.46,2.46-4-4.91,4.8.32a1.77,1.77,0,0,0,.23-3.53l-10.83-.71-.73,11a1.77,1.77,0,0,0,1.65,1.88h.12A1.77,1.77,0,0,0,21.39,26l.33-5L25.9,26.1l-2.69,2.68a1.77,1.77,0,1,0,2.5,2.5l2.44-2.44,1.6,1.94a17.73,17.73,0,0,0,4.82,25.39A18,18,0,0,1,34.64,53a17.62,17.62,0,0,1,.9-3.83c-.22-.23-.46-.43-.66-.68A11.71,11.71,0,0,1,32.42,39.84Z"/><path class="cls-1" d="M75.79,14.64a1.77,1.77,0,0,0,0,3.54h4.9L72.15,26.4A17.76,17.76,0,0,0,43.37,38.19c-.07.6-.11,1.2-.12,1.8a37.14,37.14,0,0,1,6.25-2,11.84,11.84,0,0,1,2.61-5.44,10.59,10.59,0,0,1,1.28,1.32,11.76,11.76,0,0,1,2,3.71c.1.33.19.66.26,1a17.77,17.77,0,0,0-4,35.31l.3,0v5.92H48.24a1.77,1.77,0,0,0,0,3.54h3.65v4.9a1.77,1.77,0,1,0,3.53,0v-4.9h3.65a1.77,1.77,0,0,0,0-3.54H55.43V74A17.77,17.77,0,0,0,71.36,54.68,17.74,17.74,0,0,0,75,29.22l-.3-.34,8.64-8.32v4.93a1.77,1.77,0,1,0,3.54,0V14.64Zm-10.42,43a11.78,11.78,0,0,1-23.2,1.24A17.55,17.55,0,0,0,52.31,57a18.36,18.36,0,0,1-5.73-4.24,11.87,11.87,0,0,1-3.81.18l-.38-.07a11.71,11.71,0,0,1,2.77-4.7A17.37,17.37,0,0,0,59,57.91a17.13,17.13,0,0,0,4.78-.1A12.56,12.56,0,0,0,64,56.47a15.83,15.83,0,0,0-.46-4.71,11.79,11.79,0,0,1-11.78-4.2A11.63,11.63,0,0,1,50.28,45a11.7,11.7,0,0,1,3.36-.54,11.91,11.91,0,0,1,1.39.08,11.66,11.66,0,0,1,5.43,2.14c.14.14.3.26.44.41l0-.09a11.86,11.86,0,0,1,2,1.94A11.71,11.71,0,0,1,65.37,57.63Zm7.36-16a11.71,11.71,0,0,1-3.18,6.7,17.9,17.9,0,0,0-2-3.07,17.7,17.7,0,0,0-5.73-4.73c0-.13,0-.25,0-.38a17.64,17.64,0,0,0-3.79-9.95c-.3-.38-.63-.71-1-1.05A11.59,11.59,0,0,1,61,28.46a12.2,12.2,0,0,1,1.39.08A11.79,11.79,0,0,1,72.73,41.62Z"/></svg>