<svg id="Layer_1" data-name="Layer 1" xmlns="http://www.w3.org/2000/svg" viewBox="0 0 104.7 104.7"><defs><style>.cls-1{fill:#231f20;}</style></defs><title>Artboard 1 copy 10</title><path class="cls-1" d="M82.22,56.72c.2-1.43,1.19-2.82,1.19-4.29s-1-2.88-1.17-4.3.34-3.07-.06-4.47-1.75-2.48-2.35-3.78-.53-3-1.31-4.26-2.37-1.87-3.32-3-1.36-2.76-2.45-3.71-2.81-1.13-4-1.93-2.07-2.27-3.41-2.87-3-.29-4.39-.71-2.62-1.58-4.08-1.79-3,.57-4.43.56-3-.79-4.42-.59S45.3,23,43.91,23.36s-3.08.09-4.4.69-2.2,2.07-3.42,2.86-2.92,1-4,1.91-1.51,2.61-2.47,3.7-2.55,1.74-3.34,3-.72,2.93-1.34,4.27S23,42.11,22.56,43.51s.13,3-.08,4.47-1.19,2.81-1.19,4.29,1,2.87,1.17,4.3-.34,3.06.06,4.45,1.74,2.48,2.34,3.8.54,3,1.32,4.26,2.37,1.87,3.32,3,1.36,2.77,2.45,3.73,2.79,1.13,4,1.92S38,80,39.37,80.59s3,.29,4.39.7,2.62,1.59,4.08,1.81,3-.57,4.42-.56,3,.78,4.42.59,2.7-1.38,4.08-1.79,3.09-.09,4.41-.68,2.2-2.09,3.42-2.87,2.92-.95,4-1.9,1.52-2.61,2.48-3.72,2.55-1.72,3.34-3,.72-2.92,1.33-4.25,2-2.37,2.37-3.79S82,58.18,82.22,56.72ZM52.28,78.85A26.51,26.51,0,1,1,78.86,52.42,26.5,26.5,0,0,1,52.28,78.85Z"/><path class="cls-1" d="M57.2,56.91l0,17a22.2,22.2,0,0,1-4.86.53,21.77,21.77,0,0,1-4.87-.56l0-17Z"/><path class="cls-1" d="M74,57A22.17,22.17,0,0,1,64.7,70.72l0-13.79Z"/><path class="cls-1" d="M39.94,56.87l0,13.78a22.15,22.15,0,0,1-9.23-13.8Z"/><path class="cls-1" d="M52.39,35.83,54,40h5.37l-4.35,2.57,1.65,4.17-4.34-2.59L48,46.74l1.67-4.17L45.35,40h5.37Zm0-5.61A22.14,22.14,0,0,0,30.22,52.3l44.25.11A22.13,22.13,0,0,0,52.41,30.22Z"/></svg>