<svg id="Layer_1" data-name="Layer 1" xmlns="http://www.w3.org/2000/svg" viewBox="0 0 104.7 104.7"><defs><style>.cls-1{fill:#231f20;}</style></defs><title>Artboard 1 copy 11</title><polygon class="cls-1" points="14.56 40.92 4.04 46.76 10.72 53.73 11.06 65.76 24.06 60.97 14.56 40.92"/><path class="cls-1" d="M34.18,46.63a1.28,1.28,0,0,0,1.24-1.22,1.23,1.23,0,0,0-.27-.77,5.7,5.7,0,0,0-5-3.48,6.1,6.1,0,0,0-6.06,6.4,1.22,1.22,0,0,0,2,.88,9.62,9.62,0,0,1,5.85-2.05,9.29,9.29,0,0,1,2,.21A1.43,1.43,0,0,0,34.18,46.63Z"/><path class="cls-1" d="M50.87,41a5.71,5.71,0,0,0-5-3.47A6.1,6.1,0,0,0,39.79,44,1.21,1.21,0,0,0,41,45.14a1.23,1.23,0,0,0,.81-.3,9.61,9.61,0,0,1,5.85-2.05,9.33,9.33,0,0,1,2,.21,1.15,1.15,0,0,0,.28,0,1.21,1.21,0,0,0,1.24-1.21A1.23,1.23,0,0,0,50.87,41Z"/><path class="cls-1" d="M47.43,49.67a1.21,1.21,0,0,0-1.22.61,9.19,9.19,0,0,1-5.46,4.07,10.43,10.43,0,0,1-2.13.22,11.64,11.64,0,0,1-4.68-1A1.22,1.22,0,0,0,32.22,55c.08.32,2.05,7.91,8.48,7.91a8.69,8.69,0,0,0,2.13-.27,7.35,7.35,0,0,0,4.75-3.4c2.13-3.59.92-8.41.86-8.62A1.22,1.22,0,0,0,47.43,49.67Z"/><path class="cls-1" d="M92.15,61.84c-1.16,6.64-3.24,13.72-7,19.09L95.42,82.6V71.91l5.24-8.47Z"/><path class="cls-1" d="M92.14,40c-7.75,4-22.28,1.23-28.92-.35.1,3.57.5,8.59-.45,13.82.26,0,0,0,.27,0A9.24,9.24,0,0,0,66.23,53a1.21,1.21,0,0,1,1.63,1.48,6.26,6.26,0,0,1-5.78,4.42h0a3.05,3.05,0,0,1-.75,0A30.66,30.66,0,0,1,51,74.37c2.3,4.46,7,11.87,12.92,12.77C94.64,91.76,92.14,40,92.14,40ZM76.08,74.7a1.22,1.22,0,0,1-.8,1,1.17,1.17,0,0,1-.41.07,1.23,1.23,0,0,1-.87-.36,11.5,11.5,0,0,0-6.18-2.95,9.13,9.13,0,0,0-6.49,2.07,1.21,1.21,0,0,1-2-1c.27-3.46,2.49-10.14,9.22-9.54S76.37,71.26,76.08,74.7Zm7.83-18.61a6.26,6.26,0,0,1-5.78,4.42h0a5.54,5.54,0,0,1-5.65-5.59,1.21,1.21,0,0,1,1.84-1.08,9.45,9.45,0,0,0,8,.77,1.22,1.22,0,0,1,1.63,1.48Z"/><path class="cls-1" d="M61.06,39.14h0a99.46,99.46,0,0,0-4.6-20l-.67-1.85-1.36,1.42c-.06.07-6.39,6.57-20.83,10.67A43.82,43.82,0,0,1,21.79,31.2c-5.67,0-8.17-1.66-8.19-1.67L11.16,27.8l.55,2.95C12,32.54,20.12,74.6,40.9,74.6a17.35,17.35,0,0,0,6.18-1.2,22.28,22.28,0,0,0,2.78-1.31h0C61.53,65.05,62.69,50.42,61.06,39.14Zm-14.85,32a15,15,0,0,1-5.31,1c-16.19,0-24.33-30.8-26.32-39.57a23,23,0,0,0,7.2,1,46.16,46.16,0,0,0,12.44-1.93c11.3-3.2,17.79-7.77,20.47-10C57.23,29.77,66.39,63.44,46.22,71.13Z"/></svg>