<svg width="63" height="18" viewBox="0 0 63 18" version="1.1" xmlns="http://www.w3.org/2000/svg" xmlns:xlink="http://www.w3.org/1999/xlink">
<g id="Canvas" transform="translate(-13260 -8129)">
<g id="PICK ONE!">
<use xlink:href="#path0_fill" transform="translate(13259 8130)" fill="#FFFFFF"/>
</g>
</g>
<defs>
<path id="path0_fill" d="M 3.456 16L 3.456 9.616L 4.2 9.616C 6.408 9.616 7.632 8.32 7.632 4.792C 7.632 2.968 7.224 1.744 6.504 0.904C 5.712 -0.0079999 4.752 -0.0079999 3.744 -0.0079999L 1.056 -0.0079999L 1.056 16L 3.456 16ZM 3.456 2.032L 3.936 2.032C 4.608 2.032 5.112 2.032 5.112 4.672C 5.112 7.216 4.848 7.432 3.936 7.432L 3.456 7.432L 3.456 2.032ZM 11.7172 16L 11.7172 -0.0079999L 9.31725 -0.0079999L 9.31725 16L 11.7172 16ZM 18.5218 12.088C 18.3778 13.384 18.2578 14.176 17.5378 14.176C 16.9618 14.176 16.7698 13.624 16.7218 13.384C 16.3858 12.16 16.3858 9.52 16.3858 8.056C 16.3858 6.448 16.3858 4.6 16.5538 3.4C 16.6498 2.536 16.8178 1.816 17.4658 1.816C 18.1378 1.816 18.4018 2.536 18.5218 4.096L 20.7538 3.808C 20.4898 1.048 19.3858 -0.2 17.5138 -0.2C 14.7538 -0.2 13.8658 2.248 13.8658 7.912C 13.8658 13.624 14.7058 16.192 17.5378 16.192C 20.0578 16.192 20.5618 13.864 20.7538 12.376L 18.5218 12.088ZM 29.0732 16L 25.9292 6.808L 28.8572 -0.0079999L 26.5772 -0.0079999L 24.4412 5.896L 24.4412 -0.0079999L 22.1132 -0.0079999L 22.1132 16L 24.4412 16L 24.4412 8.488L 26.6012 16L 29.0732 16ZM 34.3371 8.008C 34.3371 12.712 34.7211 16.192 37.9611 16.192C 40.5051 16.192 41.6091 14.2 41.6091 8.008C 41.6091 1.816 40.5051 -0.2 37.9611 -0.2C 34.6491 -0.2 34.3371 3.472 34.3371 8.008ZM 36.9051 8.008C 36.9051 7.912 36.9051 3.76 37.0971 2.752C 37.1931 2.248 37.3611 1.792 37.9611 1.792C 38.5851 1.792 38.8731 2.248 38.9211 3.424C 39.0171 5.128 39.0411 6.136 39.0411 8.416C 39.0411 8.704 39.0411 12.16 38.8251 13.24C 38.7291 13.72 38.5611 14.2 37.9611 14.2C 37.3611 14.2 37.1931 13.696 37.0971 13.24C 36.9051 12.16 36.9051 9.256 36.9051 8.008ZM 50.7146 16L 50.7146 -0.0079999L 48.7706 -0.0079999L 48.7706 5.68C 48.7706 7.432 48.8666 9.496 48.9866 11.392C 48.6266 9.856 48.4346 9.136 47.8826 7.192L 45.8426 -0.0079999L 43.8266 -0.0079999L 43.8266 16L 45.7946 16L 45.7946 10.84C 45.7946 9.832 45.6746 6.712 45.6026 4.888C 46.0586 7.072 46.5626 8.68 46.6346 8.92L 48.7706 16L 50.7146 16ZM 58.9706 16L 58.9706 13.96L 55.7066 13.96L 55.7066 8.632L 57.9146 8.632L 57.9146 6.592L 55.7066 6.592L 55.7066 2.032L 58.7546 2.032L 58.7546 -0.0079999L 53.3066 -0.0079999L 53.3066 16L 58.9706 16ZM 63.4116 16L 63.4116 13.264L 60.9396 13.264L 60.9396 16L 63.4116 16ZM 63.0276 11.776L 63.4116 -0.0079999L 60.8916 -0.0079999L 61.2756 11.776L 63.0276 11.776Z"/>
</defs>
</svg>
