<svg id="Layer_1" data-name="Layer 1" xmlns="http://www.w3.org/2000/svg" viewBox="0 0 104.7 104.7">
        <defs>
        <style>
            .cls-1 {
                fill: #fff
            }
        </style>
    </defs>
    <path class="cls-1" d="M72.5,23.39c-7-2.74-11.09,3.82-11.09,3.82s-2.14-7.36-9.58-6.44c-3.95.49-4.72,5.32-2.94,10.72a7.25,7.25,0,0,1,5.26-2.26h0A4,4,0,0,1,58,32.18c.94,2.67.4,6.82-1.34,10.65a21.26,21.26,0,0,0,2.51,1.79C70.62,41.35,79.48,26.14,72.5,23.39Z"
    />
    <path class="cls-1" d="M48.67,36l-.4,2.27-1.46-1.78a6.83,6.83,0,0,0-4.71-2.35,5.78,5.78,0,0,0-2.87.82c-.35.2-1.4.8-1,2.72.66,3.48,5.94,9.14,12.8,10.34a17.18,17.18,0,0,0,4.52-6.53,26.8,26.8,0,0,1-5.7-8.22A7.65,7.65,0,0,0,48.67,36Z"
    />
    <path class="cls-1" d="M56.64,32.47c-.59-1.69-1.67-1.69-2-1.69a5.67,5.67,0,0,0-4.78,2.53,26.8,26.8,0,0,0,5.7,8.22C57,38.06,57.35,34.48,56.64,32.47Z"
    />
    <path class="cls-1" d="M83,40,63,56l-.92,3.77L45.76,62.61V61.43l15-3V53.65s-6-.47-19.94-.7-16.93,8-16.93,8-2.44,6.84-7.77,9.43c0,0,7.35,12.56,9.53,13.57C27.25,84.69,35,73.22,35,73.22L63,74.4,88.52,42.57Z"
    />
</svg>