<svg id="Layer_1" data-name="Layer 1" xmlns="http://www.w3.org/2000/svg" viewBox="0 0 104.7 104.7"><defs><style>.cls-1{fill:#231f20;}</style></defs><title>Artboard 1 copy 5</title><path class="cls-1" d="M57.82,62.18s8-8.48.79-15.8S41.1,45.41,34.54,27c0,0-11.9,16.14,4.07,33.43C48,70.63,57.82,62.18,57.82,62.18Z"/><path class="cls-1" d="M51.89,57.61c8.5-7,10.2-17.06,13-23,4.8-10.27,14.62-5.47,14.62-5.47a4,4,0,0,0-2,3.29c0,2.19,10.57,37.83-12,47.81-19.65,8.7-28.9-15.06-45.63-12.61,0,0,2-3.49,7.92-3.57,0,0-1.45-2.12-2.9-2s3.56-1.63,6.63,1C31.58,63,43.19,64.81,51.89,57.61Z"/><path d="M39.64,25.22s-4,9.39,14.11,16.27a16.16,16.16,0,0,1,5.62,3.39c1.17-2.57,2.05-5.1,2.88-7.38C55.53,33.27,42.12,35.51,39.64,25.22Z"/><path d="M84.47,31.27a13.18,13.18,0,0,1-2.74-.66,3.65,3.65,0,0,0,.19-2.06.42.42,0,0,0-.52-.29,1.48,1.48,0,0,0-1.12,1.55,4.27,4.27,0,0,1-1.06-1.19,5.57,5.57,0,0,1-.68-2l0,0a2.32,2.32,0,0,0,1-2.27.43.43,0,0,0-.53-.4,1.44,1.44,0,0,0-.65.34c0-.44,0-.87,0-1.28a.42.42,0,0,0-.84,0c0,1,0,2,.09,3a2.1,2.1,0,0,1-1.13-.37.42.42,0,0,0-.63.36c.05,1.07.88,1.39,1.81,1.57a.43.43,0,0,0,.22,0A7.05,7.05,0,0,0,78.49,29a6,6,0,0,0,4.23,2.75c-.14.2-.32.37-.45.59a1,1,0,0,0,0,1,.42.42,0,0,0,.72,0c.29-.44.49-.93.77-1.39l.43.07C84.78,32.15,85,31.35,84.47,31.27ZM81.1,29.8a1.46,1.46,0,0,1,0-.27A2.22,2.22,0,0,1,81.1,29.8Z"/></svg>