<svg id="Layer_1" data-name="Layer 1" xmlns="http://www.w3.org/2000/svg" viewBox="0 0 104.7 104.7"><defs><style>.cls-1{fill:#fff}</style></defs><title>Artboard 1 copy 2</title><circle class="cls-1" cx="52.35" cy="40.96" r="9.43"/><path class="cls-1" d="M43.63 48.25s-10 5-8.55 28.1c0 0 20.27 7.78 37.58-1.26 0 0 1.44-18.06-10.69-26.84 0 0-2.1 4.1-9.62 4.06s-8.72-4.06-8.72-4.06z"/><circle class="cls-1" cx="77.79" cy="33.48" r="8.24"/><path class="cls-1" d="M86 39.9s-1.83 3.58-8.41 3.55S70 39.9 70 39.9s-3.06 1.54-5.29 7c4.86 3.93 9.32 9.93 10.4 20.23 6.52 1 11.84.66 20.27-3.74-.02-.04 1.24-15.82-9.38-23.49z"/><circle class="cls-1" cx="26.9" cy="33.48" r="8.24"/><path class="cls-1" d="M18.68 40.1s1.83 3.58 8.41 3.54 7.62-3.54 7.62-3.54 3.06 1.53 5.29 7c-5.3 6.58-8.08 15.18-8.22 19.7-6.52 1-14 1.19-22.44-3.21 0-.04-1.26-15.82 9.34-23.49z"/></svg>